<svg width="1000" height="600" xmlns="http://www.w3.org/2000/svg">
<path fill="#222b4a" d="M0 0h1000v600H0z"/>
<!-- <path d="M0 200h0c41.835-15.224 83.67-30.448 118-37s61.155-4.432 95 14c33.845 18.432 74.709 53.178 111 55 36.291 1.822 68.01-29.278 109-32 40.99-2.722 91.25 22.933 130 27s65.988-13.454 98-31 68.797-35.115 107-33c38.203 2.115 77.824 23.916 121 35s89.907 11.453 109 10c19.093-1.453 10.546-4.726 42-8" fill="none" stroke="#f4ba92" stroke-width="2" stroke-linecap="round"/> -->
<!-- <path d="M0 400h0c32.914-11.982 65.827-23.964 100-28 34.173-4.036 69.605-.125 112 14 42.395 14.125 91.754 38.465 132 47 40.246 8.535 71.38 1.267 104-5 32.62-6.267 66.724-11.531 105-12 38.276-.469 80.723 3.858 119 9 38.277 5.142 72.383 11.1 104-1 31.617-12.1 60.743-42.258 103-38 42.257 4.258 97.645 42.93 120 51 22.355 8.07 11.678-14.465 41-37" fill="none" stroke="#f2d18a" stroke-width="2" stroke-linecap="round"/> -->
<path d="M0 150h0c53.473-9.731 106.946-19.463 162-13 55.054 6.463 111.69 29.12 172 30 60.31.88 124.293-20.015 177-27 52.707-6.985 94.138-.058 147 12 52.862 12.058 117.155 29.246 183 24 65.845-5.246 133.241-32.928 160-41 26.759-8.072 12.88 3.464 39 15" fill="none" stroke="#f4ba92" stroke-width="3" stroke-linecap="round"/>
<path d="M0 300h0c62.349-.233 124.698-.466 180-1 55.302-.534 103.558-1.37 157 0 53.442 1.37 112.069 4.944 168 11s109.167 14.592 163 6 108.263-34.313 169-39c60.737-4.687 127.782 11.66 156 19 28.218 7.34 17.609 5.67 47 4" fill="none" stroke="#f4ba92" stroke-width="3" stroke-linecap="round"/>
<path d="M0 450h0c47.962 14.463 95.924 28.926 154 20 58.076-8.926 126.266-41.241 182-42 55.734-.759 99.012 30.04 155 32 55.988 1.96 124.688-24.918 183-28 58.312-3.082 106.238 17.632 165 29 58.762 11.368 128.36 13.39 157 10 28.64-3.39 16.32-12.195 44-21" fill="none" stroke="#f2d18a" stroke-width="3" stroke-linecap="round"/>
</svg>
